<svg width="800" height="500" viewBox="0 0 800 500" xmlns="http://www.w3.org/2000/svg">
  <!-- Sky background gradient -->
  <defs>
    <linearGradient id="skyGradient" x1="0%" y1="0%" x2="0%" y2="100%">
      <stop offset="0%" style="stop-color:#87CEEB;stop-opacity:1" />
      <stop offset="100%" style="stop-color:#B0E0E6;stop-opacity:1" />
    </linearGradient>
    
    <!-- Table surface gradient -->
    <linearGradient id="tableGradient" x1="0%" y1="0%" x2="0%" y2="100%">
      <stop offset="0%" style="stop-color:#0066CC;stop-opacity:1" />
      <stop offset="100%" style="stop-color:#004499;stop-opacity:1" />
    </linearGradient>
    
    <!-- Cloud -->
    <g id="cloud">
      <ellipse cx="0" cy="0" rx="25" ry="15" fill="#ffffff" opacity="0.8"/>
      <ellipse cx="-20" cy="0" rx="20" ry="12" fill="#ffffff" opacity="0.8"/>
      <ellipse cx="20" cy="0" rx="20" ry="12" fill="#ffffff" opacity="0.8"/>
      <ellipse cx="-10" cy="-8" rx="15" ry="10" fill="#ffffff" opacity="0.8"/>
      <ellipse cx="10" cy="-8" rx="15" ry="10" fill="#ffffff" opacity="0.8"/>
    </g>
    
    <!-- Star -->
    <g id="star">
      <polygon points="0,-8 2,-2 8,-2 3,1 5,7 0,4 -5,7 -3,1 -8,-2 -2,-2" fill="#FFD700" opacity="0.7"/>
    </g>
  </defs>
  
  <!-- Sky background -->
  <rect width="800" height="300" fill="url(#skyGradient)"/>
  
  <!-- Table surface -->
  <rect x="0" y="300" width="800" height="200" fill="url(#tableGradient)"/>
  
  <!-- Table net area (darker) -->
  <rect x="390" y="300" width="20" height="200" fill="#003366"/>
  
  <!-- Table center line -->
  <line x1="400" y1="300" x2="400" y2="500" stroke="#ffffff" stroke-width="2" stroke-dasharray="10,5"/>
  
  <!-- Clouds in the sky -->
  <use href="#cloud" transform="translate(150, 80)"/>
  <use href="#cloud" transform="translate(350, 60)"/>
  <use href="#cloud" transform="translate(600, 90)"/>
  <use href="#cloud" transform="translate(750, 70)"/>
  <use href="#cloud" transform="translate(50, 100)"/>
  
  <!-- Stars scattered around -->
  <use href="#star" transform="translate(100, 120)"/>
  <use href="#star" transform="translate(250, 40)"/>
  <use href="#star" transform="translate(450, 80)"/>
  <use href="#star" transform="translate(650, 50)"/>
  <use href="#star" transform="translate(750, 140)"/>
  <use href="#star" transform="translate(50, 45)"/>
  
  <!-- Table legs (simple rectangles) -->
  <rect x="50" y="480" width="15" height="20" fill="#8B4513" rx="2"/>
  <rect x="735" y="480" width="15" height="20" fill="#8B4513" rx="2"/>
  
  <!-- Fun elements for kids -->
  <!-- Sun -->
  <circle cx="700" cy="60" r="30" fill="#FFA500" opacity="0.8"/>
  <circle cx="700" cy="60" r="20" fill="#FFD700"/>
  <!-- Sun rays -->
  <g stroke="#FFD700" stroke-width="3" stroke-linecap="round" opacity="0.6">
    <line x1="670" y1="60" x2="655" y2="60"/>
    <line x1="730" y1="60" x2="745" y2="60"/>
    <line x1="700" y1="30" x2="700" y2="15"/>
    <line x1="700" y1="90" x2="700" y2="105"/>
    <line x1="678" y1="38" x2="668" y2="28"/>
    <line x1="722" y1="82" x2="732" y2="92"/>
    <line x1="722" y1="38" x2="732" y2="28"/>
    <line x1="678" y1="82" x2="668" y2="92"/>
  </g>
  
  <!-- Rainbow arc -->
  <path d="M 50 200 Q 200 80 350 200" stroke="#FF0000" stroke-width="8" fill="none" opacity="0.3"/>
  <path d="M 55 205 Q 200 90 345 205" stroke="#FF8000" stroke-width="8" fill="none" opacity="0.3"/>
  <path d="M 60 210 Q 200 100 340 210" stroke="#FFFF00" stroke-width="8" fill="none" opacity="0.3"/>
  <path d="M 65 215 Q 200 110 335 215" stroke="#00FF00" stroke-width="8" fill="none" opacity="0.3"/>
  <path d="M 70 220 Q 200 120 330 220" stroke="#0080FF" stroke-width="8" fill="none" opacity="0.3"/>
  <path d="M 75 225 Q 200 130 325 225" stroke="#8000FF" stroke-width="8" fill="none" opacity="0.3"/>
  
  <!-- Table edge highlights for 3D effect -->
  <line x1="0" y1="300" x2="800" y2="300" stroke="#ffffff" stroke-width="2" opacity="0.5"/>
  <line x1="0" y1="500" x2="800" y2="500" stroke="#002244" stroke-width="2"/>
</svg>